# xmcd CD database file
#
# Track frame offsets:
#	150
#	11840
#	24047
#	37337
#	50700
#	61315
#	75372
#	83665
#	100867
#	113252
#
# Disc length: 1650 seconds
#
# Revision: 1
# Processed by: cddbd v1.5.2PL0 Copyright (c) Steve Scherf et al.
# Submitted via: CDex 1.99.1
#
DISCID=6b06700a
DTITLE=Various Artist - Smooth Soul
DYEAR=2001
DGENRE=Slow Jam
TTITLE0=Soul Man
TTITLE1=Heat Wave
TTITLE2=Stand By Me
TTITLE3=It's Alright
TTITLE4=Shout - Part 2
TTITLE5=Too Late To Turn Back Now
TTITLE6=He's So Fine
TTITLE7=Rainy Night in Georgia
TTITLE8=Tighten Up
TTITLE9=Hurst So Bad
EXTD=YEAR: 2001
EXTT0=
EXTT1=
EXTT2=
EXTT3=
EXTT4=
EXTT5=
EXTT6=
EXTT7=
EXTT8=
EXTT9=
PLAYORDER=
